PathFileType	3	(X/Y/Z)	D:\VICON_DB\Goncalves\Pilot01\09-03-2026\static_01.trc
DataRate	CameraRate	NumFrames	NumMarkers	Units	OrigDataRate	OrigDataStartFrame	OrigNumFrames
200.0	200.0	5	34	mm	200.0	41	321	
Frame#	Time	LASI			RASI			LPSI			RPSI			LTHI			LTHAP			LTHAD			LKNE			LKNM			LTIB			LTIAP			LTIAD			LANK			LMED			LHEE			LTOE			LFMH			LSMH			LVMH			RTHI			RTHAP			RTHAD			RKNE			RKNM			RTIB			RTIAP			RTIAD			RANK			RMED			RHEE			RTOE			RFMH			RSMH			RVMH			
		X1	Y1	Z1	X2	Y2	Z2	X3	Y3	Z3	X4	Y4	Z4	X5	Y5	Z5	X6	Y6	Z6	X7	Y7	Z7	X8	Y8	Z8	X9	Y9	Z9	X10	Y10	Z10	X11	Y11	Z11	X12	Y12	Z12	X13	Y13	Z13	X14	Y14	Z14	X15	Y15	Z15	X16	Y16	Z16	X17	Y17	Z17	X18	Y18	Z18	X19	Y19	Z19	X20	Y20	Z20	X21	Y21	Z21	X22	Y22	Z22	X23	Y23	Z23	X24	Y24	Z24	X25	Y25	Z25	X26	Y26	Z26	X27	Y27	Z27	X28	Y28	Z28	X29	Y29	Z29	X30	Y30	Z30	X31	Y31	Z31	X32	Y32	Z32	X33	Y33	Z33	X34	Y34	Z34	
41	0.2	119.16655	903.67065	-1066.6832	115.46364	905.18951	-1332.2661	307.495	959.97107	-1175.21	309.8259	954.55658	-1232.1732	125.36909	694.18811	-1034.6343	143.05629	767.91461	-1021.254	169.11174	630.13293	-1010.1845	221.20438	474.77151	-1026.2163	198.43222	464.41241	-1154.2029	258.33252	281.70621	-1005.5239	201.10202	357.11859	-1061.4723	216.56111	254.8584	-1033.4827	272.59668	70.464546	-1027.5931	239.59769	80.8713	-1108.0771	314.96368	61.780884	-1080.7963	191.43042	71.935074	-1047.5297	134.04346	44.852055	-1073.2408	133.75635	39.293224	-1032.9498	149.17918	25.723038	-993.07629	160.18782	626.48956	-1383.8107	123.54034	752.59875	-1360.5543	107.67491	660.75104	-1337.895	208.8044	490.73624	-1366.6642	206.78949	434.64352	-1246.2424	228.1021	296.23096	-1384.5596	188.96281	346.60657	-1329.7109	194.13943	265.30789	-1332.2576	269.15347	61.76162	-1356.1022	232.9155	90.880714	-1275.6984	305.18222	57.828362	-1314.4136	176.73772	69.084267	-1340.6713	126.26473	49.414463	-1315.3792	123.9556	40.569347	-1351.4824	139.97177	20.289255	-1388.8618
42	0.205	119.2086	903.67865	-1066.7035	115.61606	905.1922	-1332.2542	308.27902	960.21106	-1174.3199	309.91769	954.58801	-1232.1392	125.38621	694.1925	-1034.6577	143.06194	767.92676	-1021.2859	169.13437	630.12683	-1010.19	221.22134	474.76987	-1026.2241	198.43855	464.41074	-1154.2225	258.33334	281.69943	-1005.5212	201.12408	357.13364	-1061.4886	216.57213	254.85324	-1033.4877	272.82016	70.485634	-1027.3868	239.37245	80.888161	-1108.2644	314.97003	61.759193	-1080.7681	191.30948	71.892624	-1047.6725	134.05382	44.857063	-1073.2319	133.75946	39.294342	-1032.9564	149.18071	25.724287	-993.06586	160.2686	626.50385	-1383.8197	123.63263	752.61639	-1360.5835	107.76207	660.77734	-1337.9186	208.86014	490.72034	-1366.6747	206.8649	434.60938	-1246.2378	228.20518	296.23099	-1384.5065	188.97252	346.63229	-1329.7511	194.15143	265.32767	-1332.2766	269.16553	61.75724	-1356.0957	232.95781	90.849678	-1275.7258	305.1958	57.829739	-1314.3878	176.74651	69.071869	-1340.6069	126.31191	49.403141	-1315.3612	123.9642	40.55751	-1351.4895	139.94672	20.326298	-1388.8925
43	0.21	119.25818	903.67682	-1066.7372	115.7534	905.16638	-1332.2206	307.75699	959.98608	-1174.96	309.98788	954.57446	-1232.1229	125.40486	694.18781	-1034.6697	143.09093	767.91296	-1021.2945	169.13255	630.13055	-1010.206	221.2355	474.76727	-1026.2334	198.44881	464.41519	-1154.2301	258.35492	281.69489	-1005.514	201.13049	357.13901	-1061.4269	216.58684	254.85323	-1033.4774	272.50131	70.545486	-1027.5435	239.59126	80.8545	-1108.0652	314.97604	61.749363	-1080.7549	191.23657	71.908249	-1047.7047	134.04059	44.854691	-1073.236	133.75917	39.298809	-1032.9606	149.16322	25.715052	-993.07623	160.33897	626.50897	-1383.8229	123.78051	752.50372	-1360.5903	107.84772	660.78424	-1337.9342	208.94617	490.73163	-1366.6753	206.92549	434.59219	-1246.2324	228.23495	296.2197	-1384.4908	189.02451	346.62585	-1329.7528	194.11722	265.3222	-1332.2621	269.16879	61.761238	-1356.0797	232.87538	90.880844	-1275.6796	305.19183	57.830494	-1314.3895	176.75211	69.079514	-1340.6833	126.29731	49.416935	-1315.3694	123.85777	40.508743	-1351.5104	139.96519	20.285299	-1388.8573
44	0.215	119.28923	903.67859	-1066.7523	115.83938	905.21515	-1332.2642	307.659	959.97308	-1175.26	310.09122	954.53796	-1232.098	125.42839	694.18237	-1034.6769	143.11357	767.91296	-1021.3033	169.1447	630.12085	-1010.2209	221.25465	474.76746	-1026.2375	198.47299	464.41693	-1154.2285	258.37192	281.69968	-1005.5058	201.17067	357.13431	-1061.4642	216.60011	254.84026	-1033.4822	272.79498	70.503746	-1027.3898	239.36537	80.878983	-1108.2721	314.98483	61.740295	-1080.7443	191.26523	71.867271	-1047.6946	134.05202	44.846031	-1073.2275	133.75327	39.28381	-1032.9663	149.16707	25.706802	-993.07739	160.41533	626.5174	-1383.8423	123.87297	752.4942	-1360.5839	107.90743	660.78558	-1337.9728	208.96875	490.75967	-1366.6875	206.86665	434.62543	-1246.2524	228.27107	296.23468	-1384.4916	189.0526	346.63873	-1329.7557	194.20773	265.30219	-1332.2821	269.17493	61.764866	-1356.0966	232.87495	90.885788	-1275.6974	305.1857	57.829208	-1314.3937	176.73608	69.031906	-1340.6758	126.27904	49.421913	-1315.4052	123.85347	40.511772	-1351.5031	139.9456	20.280096	-1388.8766
45	0.22	119.32402	903.68787	-1066.7766	115.94736	905.2124	-1332.2776	307.38004	959.97107	-1176.01	310.16516	954.53937	-1232.0992	125.45884	694.1759	-1034.6853	143.14426	767.89685	-1021.3281	169.15971	630.12115	-1010.2211	221.28545	474.76602	-1026.2122	198.50493	464.41083	-1154.2341	258.37808	281.6839	-1005.506	201.1904	357.11761	-1061.4777	216.60559	254.84454	-1033.4862	272.86423	70.55735	-1027.4574	239.37802	80.859192	-1108.2596	314.98047	61.724648	-1080.7286	191.26503	71.87619	-1047.6934	134.05255	44.838734	-1073.2332	133.74266	39.286114	-1032.9573	149.17944	25.689142	-993.08295	160.47731	626.51965	-1383.8655	123.96721	752.53473	-1360.6053	107.97504	660.8045	-1337.9874	209.04228	490.72189	-1366.6862	206.90749	434.63055	-1246.25	228.27879	296.23352	-1384.5074	189.07173	346.63373	-1329.762	194.15891	265.32086	-1332.2821	269.16693	61.780777	-1356.1056	232.87296	90.897202	-1275.6864	305.17554	57.832989	-1314.3953	176.75716	69.049042	-1340.6659	126.49405	49.384697	-1315.1647	123.95647	40.546898	-1351.484	139.9946	20.184942	-1388.8622
